<svg width="656" height="629" viewBox="0 0 656 629" fill="none" xmlns="http://www.w3.org/2000/svg">
<path fill-rule="evenodd" clip-rule="evenodd" d="M0 380.424V39.8061C0 28.7659 3.78384 19.3509 11.3208 11.5923C18.8889 3.89471 28.1653 0 38.9065 0H76.715V141.529H230.207V0H308.051V380.424H230.207V211.175H76.715V380.424H0Z" fill="#DB1F26"/>
<path fill-rule="evenodd" clip-rule="evenodd" d="M423.809 311.761H473.366C509.313 311.761 535.712 302.225 552.583 283.026C568.696 265.299 576.815 234.448 576.815 190.197C576.815 147.447 569.032 116.075 553.621 96.2027C539.068 76.2383 515.631 66.3637 483.345 66.3637H423.809V311.761ZM347.949 380.424V39.8061C347.949 28.7659 351.797 19.3509 359.456 11.5614C367.144 3.8947 376.575 0 387.528 0H483.345C541.232 0 584.502 15.5175 613.037 46.4298C641.751 78.8146 656 126.778 656 190.197C656 224.054 650.811 254.689 640.589 281.892C628.843 309.952 613.492 331.389 594.421 346.076C578.308 358.619 561.037 367.453 542.697 372.605C525.031 377.758 498.328 380.424 462.414 380.424H347.949Z" fill="#DB1F26"/>
<path d="M40.6463 552.079C25.5003 551.56 11.8891 543.879 4.23756 531.523C3.73653 530.462 3.25652 529.618 2.78683 528.77C1.60744 526.663 0.38599 524.477 0.114647 521.768L0 520.622L10.8557 516.076L14.5613 522.391C19.7073 532.03 30.1139 538.473 40.4793 538.473L40.9696 538.461C52.1177 538.083 62.4723 531.234 66.1049 521.82C68.7354 514.709 66.846 505.874 61.387 499.865C55.4162 494.543 48.0888 492.554 40.3226 490.447C36.2203 489.326 31.9824 488.184 28.0054 486.48C15.6153 481.359 6.91013 469.14 6.85776 456.751C5.90767 444.319 12.9225 431.79 24.7489 424.945C29.7593 421.93 35.8549 420.322 42.3581 420.322C50.3226 420.322 58.1301 422.83 63.7771 427.2C69.7165 431.44 74.2051 437.136 76.3656 443.23L76.8666 444.636L65.0822 449.271L64.4451 448.097C61.3243 442.369 56.6166 437.747 51.5123 435.42C48.9968 434.298 46.0847 433.695 43.0785 433.695C37.2018 433.695 31.2937 435.958 27.2854 439.737C21.064 445.738 18.6945 453.588 20.7823 461.277C25.3749 473.075 35.73 475.804 46.69 478.674C55.4476 480.977 64.5078 483.369 71.1363 490.596C80.5932 500.448 83.4534 516.562 77.921 528.866C71.5746 542.693 56.982 551.806 40.7193 552.079H40.6463Z" fill="#254AA5"/>
<path d="M332.907 552.079C317.422 551.56 303.526 543.879 295.726 531.523C295.215 530.486 294.732 529.65 294.266 528.814C293.049 526.696 291.787 524.497 291.487 521.776L291.349 520.622L302.491 516.076L306.247 522.403C311.52 532.029 322.151 538.473 332.749 538.473L333.24 538.461C344.65 538.083 355.236 531.234 358.959 521.82C361.661 514.697 359.718 505.862 354.137 499.865C348.032 494.543 340.529 492.541 332.599 490.447C328.405 489.326 324.073 488.184 319.997 486.48C307.338 481.351 298.447 469.128 298.383 456.751C297.413 444.327 304.584 431.79 316.687 424.945C321.798 421.93 328.032 420.322 334.68 420.322C342.833 420.322 350.819 422.83 356.591 427.2C362.663 431.44 367.242 437.136 369.44 443.23L369.963 444.636L357.925 449.271L357.264 448.097C354.064 442.349 349.249 437.727 344.062 435.42C341.502 434.298 338.513 433.695 335.451 433.695C329.431 433.695 323.388 435.958 319.279 439.737C312.919 445.726 310.474 453.588 312.599 461.277C317.304 473.075 327.894 475.796 339.109 478.674C348.073 480.977 357.337 483.361 364.115 490.596C373.796 500.48 376.721 516.582 371.063 528.866C364.573 542.693 349.635 551.806 332.993 552.079H332.907Z" fill="#254AA5"/>
<path d="M173.912 495.229L155.881 450.931L137.85 495.229H173.912ZM195.904 549.296L179.512 509.054H132.218L115.827 549.296H101.137L155.881 417.539L210.625 549.296H195.904Z" fill="#254AA5"/>
<path d="M238.461 421.25H252.379V548.368H238.461V421.25Z" fill="#254AA5"/>
<path d="M467.364 471.69C459.992 471.69 454.007 477.629 454.007 484.934C454.007 492.445 460.249 499.041 467.364 499.041C474.185 499.041 481.523 494.629 481.523 484.934C481.523 477.883 474.902 471.69 467.364 471.69ZM467.364 512.181C460.229 512.181 453.725 509.477 448.568 504.376C443.374 499.222 440.736 492.679 440.736 484.934C440.736 477.456 443.051 471.69 448.021 466.778C453.489 461.359 460.355 458.365 467.364 458.365C475.29 458.365 482.437 461.133 487.488 466.162C492.65 471.275 495.48 477.947 495.48 484.934C495.48 500.717 483.66 512.181 467.364 512.181Z" fill="#254AA5"/>
<path d="M468.574 434.123C440.379 434.123 417.433 457.061 417.433 485.258C417.433 513.636 440.854 537.623 468.574 537.623C496.887 537.623 520.807 513.636 520.807 485.258C520.807 457.061 497.374 434.123 468.574 434.123ZM468.574 551.151C432.762 551.151 403.621 521.587 403.621 485.258C403.621 449.449 432.762 420.322 468.574 420.322C504.906 420.322 534.45 449.449 534.45 485.258C534.45 520.971 504.282 551.151 468.574 551.151Z" fill="#254AA5"/>
<path d="M579.991 455.649V545.477H566.925V416.611L642.006 513.053V420.19H655.072V552.079L579.991 455.649Z" fill="#254AA5"/>
<path fill-rule="evenodd" clip-rule="evenodd" d="M0 628.164H656V589.194H0V628.164Z" fill="#DB1F26"/>
<path d="M201 598H213V601.562H209.047V617H204.85V601.562H201V598Z" fill="white"/>
<path d="M231.045 605.502C229.841 605.502 228.848 605.887 228.053 606.656C227.265 607.426 226.864 608.409 226.864 609.612C226.864 610.821 227.273 611.825 228.076 612.601C228.886 613.385 229.879 613.777 231.053 613.777C232.273 613.777 233.288 613.392 234.083 612.622C234.886 611.852 235.288 610.849 235.288 609.598C235.288 608.381 234.886 607.392 234.083 606.636C233.288 605.88 232.273 605.502 231.045 605.502ZM230.629 595L234.023 600.052H231.242L226.045 595H230.629ZM235.121 602.615H239V616.636H235.121V615.158C234.364 615.804 233.606 616.278 232.841 616.567C232.083 616.856 231.258 617 230.364 617C228.371 617 226.644 616.292 225.189 614.89C223.727 613.488 223 611.742 223 609.653C223 607.488 223.705 605.715 225.114 604.333C226.523 602.945 228.235 602.258 230.25 602.258C231.182 602.258 232.053 602.416 232.864 602.732C233.674 603.048 234.432 603.529 235.121 604.162V602.615Z" fill="white"/>
<path d="M250.529 603.542H254.456V617H250.529V603.542ZM252.492 598C253.183 598 253.765 598.211 254.256 598.64C254.755 599.075 255 599.59 255 600.203C255 600.804 254.755 601.318 254.264 601.741C253.781 602.169 253.198 602.381 252.523 602.381C251.825 602.381 251.227 602.163 250.736 601.727C250.245 601.299 250 600.771 250 600.151C250 599.557 250.245 599.056 250.729 598.633C251.219 598.211 251.802 598 252.492 598Z" fill="white"/>
<path d="M298 605.253L294.748 606.89C294.137 606.303 293.534 605.897 292.939 605.666C292.344 605.442 291.641 605.33 290.84 605.33C289.374 605.33 288.191 605.729 287.29 606.527C286.389 607.324 285.939 608.346 285.939 609.598C285.939 610.808 286.374 611.802 287.244 612.571C288.107 613.341 289.252 613.726 290.664 613.726C292.412 613.726 293.779 613.18 294.748 612.082L297.832 614.02C296.16 616.007 293.802 617 290.763 617C288.023 617 285.878 616.258 284.328 614.775C282.779 613.285 282 611.55 282 609.556C282 608.171 282.382 606.897 283.13 605.736C283.885 604.575 284.939 603.658 286.29 602.993C287.641 602.329 289.145 602 290.817 602C292.366 602 293.756 602.28 294.985 602.847C296.214 603.406 297.221 604.211 298 605.253Z" fill="white"/>
<path d="M310 598H313.655V604.674C314.374 604.096 315.094 603.659 315.827 603.37C316.554 603.081 317.288 602.94 318.036 602.94C319.496 602.94 320.719 603.41 321.719 604.345C322.576 605.164 323 606.361 323 607.94V617H319.374V610.992C319.374 609.405 319.295 608.33 319.129 607.765C318.971 607.201 318.691 606.778 318.302 606.502C317.906 606.226 317.424 606.085 316.849 606.085C316.101 606.085 315.46 606.32 314.928 606.778C314.396 607.241 314.022 607.873 313.813 608.673C313.705 609.083 313.655 610.024 313.655 611.496V617H310V598Z" fill="white"/>
<path d="M335.697 602.743H339.098V617H335.697V602.743ZM337.975 595H342L337.437 600.137H335L337.975 595Z" fill="white"/>
<path d="M350 602.373H353.962V603.871C354.86 603.169 355.673 602.681 356.4 602.409C357.135 602.136 357.878 602 358.637 602C360.208 602 361.531 602.502 362.63 603.52C363.543 604.38 364 605.65 364 607.335V617H360.084V610.597C360.084 608.848 360.007 607.686 359.836 607.12C359.666 606.546 359.372 606.109 358.954 605.807C358.528 605.506 358.01 605.356 357.391 605.356C356.594 605.356 355.905 605.607 355.332 606.101C354.752 606.603 354.357 607.284 354.14 608.166C354.017 608.618 353.962 609.608 353.962 611.128V617H350V602.373Z" fill="white"/>
<path d="M376 598H379.928V604.674C380.711 604.096 381.485 603.659 382.268 603.37C383.058 603.081 383.848 602.94 384.654 602.94C386.219 602.94 387.544 603.41 388.621 604.345C389.535 605.164 390 606.361 390 607.94V617H386.095V610.992C386.095 609.405 386.01 608.33 385.832 607.765C385.654 607.201 385.359 606.778 384.941 606.502C384.515 606.226 383.996 606.085 383.376 606.085C382.57 606.085 381.88 606.32 381.307 606.778C380.734 607.241 380.331 607.873 380.106 608.673C379.99 609.083 379.928 610.024 379.928 611.496V617H376V598Z" fill="white"/>
<path d="M419.7 598H423.021V603.117H425V606.119H423.021V617H419.7V606.119H418V603.117H419.7V598Z" fill="white"/>
<path d="M435.536 603.542H439.456V617H435.536V603.542ZM437.496 598C438.178 598 438.767 598.211 439.257 598.64C439.755 599.075 440 599.59 440 600.203C440 600.804 439.755 601.318 439.273 601.741C438.783 602.169 438.201 602.381 437.519 602.381C436.83 602.381 436.233 602.163 435.743 601.727C435.245 601.299 435 600.771 435 600.151C435 599.557 435.245 599.056 435.735 598.633C436.217 598.211 436.807 598 437.496 598Z" fill="white"/>
<path d="M463.151 608.138C462.905 607.377 462.404 606.763 461.664 606.289C460.917 605.809 460.057 605.575 459.071 605.575C458.01 605.575 457.068 605.842 456.261 606.376C455.76 606.71 455.297 607.297 454.856 608.138H463.151ZM453.264 600.544L457.464 597H460.536L464.713 600.544H460.536L459.026 598.902L457.464 600.544H453.264ZM466.978 610.827H454.692C454.871 611.795 455.349 612.569 456.112 613.136C456.889 613.71 457.868 613.997 459.064 613.997C460.491 613.997 461.724 613.55 462.748 612.656L465.976 614.01C465.169 615.025 464.213 615.779 463.092 616.266C461.971 616.753 460.633 617 459.093 617C456.702 617 454.752 616.326 453.249 614.978C451.747 613.63 451 611.942 451 609.913C451 607.838 451.74 606.109 453.242 604.741C454.744 603.366 456.627 602.686 458.892 602.686C461.283 602.686 463.241 603.366 464.736 604.741C466.245 606.109 467 607.924 467 610.173L466.978 610.827Z" fill="white"/>
<path d="M478 603H481.748V609.575C481.748 610.853 481.85 611.742 482.038 612.237C482.227 612.732 482.539 613.12 482.959 613.401C483.38 613.669 483.902 613.809 484.525 613.809C485.142 613.809 485.664 613.676 486.091 613.401C486.526 613.134 486.846 612.732 487.056 612.204C487.208 611.809 487.288 610.973 487.288 609.682V603H491V608.786C491 611.167 490.797 612.799 490.391 613.669C489.883 614.746 489.158 615.569 488.18 616.137C487.215 616.712 485.983 617 484.482 617C482.865 617 481.553 616.666 480.552 615.997C479.544 615.328 478.841 614.391 478.435 613.201C478.145 612.371 478 610.866 478 608.679V603Z" fill="white"/>
<path d="M527.042 605.963C525.844 605.963 524.844 606.332 524.048 607.071C523.26 607.81 522.865 608.753 522.865 609.908C522.865 611.069 523.267 612.032 524.078 612.778C524.882 613.53 525.874 613.906 527.057 613.906C528.277 613.906 529.285 613.536 530.081 612.798C530.884 612.059 531.286 611.095 531.286 609.895C531.286 608.727 530.884 607.777 530.081 607.051C529.285 606.326 528.27 605.963 527.042 605.963ZM531.119 598H535V616.65H531.119V615.232C530.361 615.852 529.604 616.307 528.846 616.584C528.08 616.861 527.254 617 526.36 617C524.366 617 522.638 616.32 521.183 614.975C519.728 613.629 519 611.953 519 609.948C519 607.869 519.705 606.167 521.107 604.841C522.524 603.509 524.237 602.849 526.253 602.849C527.178 602.849 528.05 603.001 528.861 603.304C529.672 603.608 530.43 604.069 531.119 604.676V598Z" fill="white"/>
<path d="M553.887 595L557.136 600.052H554.475L549.501 595H553.887ZM548 602.615H551.756V609.371C551.756 610.684 551.85 611.598 552.046 612.107C552.234 612.615 552.539 613.014 552.959 613.296C553.387 613.584 553.909 613.722 554.525 613.722C555.142 613.722 555.664 613.584 556.091 613.302C556.526 613.027 556.853 612.615 557.056 612.072C557.208 611.674 557.288 610.808 557.288 609.481V602.615H561V608.56C561 611.007 560.797 612.684 560.384 613.584C559.891 614.684 559.158 615.529 558.187 616.113C557.215 616.704 555.983 617 554.489 617C552.865 617 551.553 616.656 550.552 615.969C549.552 615.275 548.841 614.32 548.435 613.096C548.145 612.244 548 610.698 548 608.45V602.615Z" fill="white"/>
<path d="M573 602.373H576.955V603.871C577.86 603.169 578.673 602.681 579.4 602.409C580.135 602.136 580.878 602 581.637 602C583.2 602 584.531 602.502 585.622 603.52C586.543 604.38 587 605.65 587 607.335V617H583.084V610.597C583.084 608.848 582.999 607.686 582.829 607.12C582.666 606.546 582.372 606.109 581.946 605.807C581.528 605.506 581.01 605.356 580.391 605.356C579.586 605.356 578.905 605.607 578.324 606.101C577.752 606.603 577.357 607.284 577.133 608.166C577.017 608.618 576.955 609.608 576.955 611.128V617H573V602.373Z" fill="white"/>
<path d="M607.099 605.472C605.877 605.472 604.867 605.864 604.07 606.649C603.273 607.433 602.871 608.421 602.871 609.613C602.871 610.847 603.281 611.857 604.101 612.649C604.913 613.441 605.937 613.833 607.175 613.833C608.374 613.833 609.368 613.448 610.15 612.678C610.939 611.901 611.334 610.891 611.334 609.642C611.334 608.407 610.939 607.397 610.142 606.627C609.361 605.857 608.343 605.472 607.099 605.472ZM611.129 602.378H615V615.075C615 617.581 614.469 619.419 613.421 620.603C612.002 622.201 609.877 623 607.03 623C605.512 623 604.237 622.818 603.197 622.455C602.173 622.092 601.3 621.554 600.586 620.85C599.873 620.153 599.349 619.295 599 618.286H603.288C603.668 618.707 604.154 619.019 604.753 619.23C605.353 619.448 606.059 619.557 606.879 619.557C607.918 619.557 608.761 619.397 609.398 619.092C610.028 618.78 610.476 618.38 610.734 617.893C611 617.4 611.129 616.557 611.129 615.358C610.446 616.012 609.732 616.484 608.981 616.768C608.23 617.051 607.387 617.196 606.431 617.196C604.359 617.196 602.605 616.477 601.163 615.046C599.736 613.608 599.023 611.792 599.023 609.598C599.023 607.245 599.774 605.356 601.3 603.932C602.674 602.639 604.313 602 606.218 602C607.114 602 607.949 602.153 608.746 602.465C609.543 602.777 610.332 603.293 611.129 604.012V602.378Z" fill="white"/>
<path fill-rule="evenodd" clip-rule="evenodd" d="M131.567 628.164L150.314 589.194H104.189L86.2913 628.164H131.567Z" fill="#EE7117"/>
<path fill-rule="evenodd" clip-rule="evenodd" d="M95.1913 628.164L105.777 589.194H0V628.164H95.1913Z" fill="#F7D107"/>
<path fill-rule="evenodd" clip-rule="evenodd" d="M105.409 628.164V589.194H73.7591L50.1047 628.164H107.632H105.409Z" fill="#F4A60E"/>
</svg>
